<svg xmlns="http://www.w3.org/2000/svg" viewBox="0 0 260 170"><defs><linearGradient id="c" x1="0" y1="0" x2="0" y2="1"><stop offset="0" stop-color="#3a3b44"/><stop offset="1" stop-color="#16171c"/></linearGradient></defs><path d="M70 22h120c30 0 46 20 54 52l12 52c5 22-8 38-26 38-12 0-20-7-28-18l-14-20H72l-14 20c-8 11-16 18-28 18-18 0-31-16-26-38l12-52c8-32 24-52 54-52z" fill="url(#c)"/><circle cx="82" cy="72" r="18" fill="#2b2c33" stroke="#4a4b55" stroke-width="2"/><circle cx="82" cy="72" r="10" fill="#1d1e24"/><circle cx="160" cy="112" r="18" fill="#2b2c33" stroke="#4a4b55" stroke-width="2"/><circle cx="160" cy="112" r="10" fill="#1d1e24"/><path d="M96 104h10v-10h10v10h10v10h-10v10h-10v-10H96z" fill="#5a5b66"/><circle cx="196" cy="58" r="7" fill="#f0c419"/><circle cx="210" cy="72" r="7" fill="#e5484d"/><circle cx="182" cy="72" r="7" fill="#3b82f6"/><circle cx="196" cy="86" r="7" fill="#22c55e"/><rect x="118" y="50" width="24" height="8" rx="4" fill="#5a5b66"/></svg>
